<svg xmlns="http://www.w3.org/2000/svg" width="40" height="40" viewBox="0 0 40 40">
  <g id="Raggruppa_51522" data-name="Raggruppa 51522" transform="translate(-1510 -5029)">
    <circle id="Ellisse_1" data-name="Ellisse 1" cx="20" cy="20" r="20" transform="translate(1510 5029)" fill="#232323"/>
    <path id="Icon_awesome-linkedin" data-name="Icon awesome-linkedin" d="M-350.6-819.837h-4.969v-16.035h4.977v16.035Zm-2.485-18.225a2.885,2.885,0,0,1-2.882-2.887,2.885,2.885,0,0,1,2.882-2.888,2.886,2.886,0,0,1,2.883,2.888h0A2.888,2.888,0,0,1-353.089-838.062Zm21.118,18.225h-4.971v-7.8c0-1.86-.037-4.253-2.583-4.253-2.591,0-2.986,2.026-2.986,4.117v7.935h-4.971v-16.035h4.769v2.188h.067a5.235,5.235,0,0,1,4.708-2.588c5.031,0,5.963,3.323,5.963,7.643Zm-18.633,0h-4.969v-16.035h4.977v16.035Zm-2.485-18.225a2.885,2.885,0,0,1-2.882-2.887,2.885,2.885,0,0,1,2.882-2.888,2.886,2.886,0,0,1,2.883,2.888h0A2.888,2.888,0,0,1-353.089-838.062Zm21.118,18.225h-4.971v-7.8c0-1.86-.037-4.253-2.583-4.253-2.591,0-2.986,2.026-2.986,4.117v7.935h-4.971v-16.035h4.769v2.188h.067a5.235,5.235,0,0,1,4.708-2.588c5.031,0,5.963,3.323,5.963,7.643Z" transform="translate(1873.971 5880.837)" fill="#fff"/>
  </g>
</svg>
