<svg xmlns="http://www.w3.org/2000/svg" width="40" height="40" viewBox="0 0 40 40">
  <circle id="Ellisse_6" data-name="Ellisse 6" cx="20" cy="20" r="20" fill="#232323"/>
  <path id="Tracciato_34861" data-name="Tracciato 34861" d="M-429.186-787.817c.015.2.015.393.015.591.052,7.086-6.129,12.869-13.8,12.918h-.19a14.8,14.8,0,0,1-7.554-2.039,11.6,11.6,0,0,0,1.185.055,10.407,10.407,0,0,0,6.105-1.939,4.9,4.9,0,0,1-4.6-3.15,5.761,5.761,0,0,0,2.22-.082,4.647,4.647,0,0,1-3.937-4.46v-.054a5.249,5.249,0,0,0,2.226.576,4.448,4.448,0,0,1-2.2-3.781,4.231,4.231,0,0,1,.667-2.294,14.4,14.4,0,0,0,10.14,4.749,4.551,4.551,0,0,1,3.684-5.463,5.2,5.2,0,0,1,4.708,1.316,10.194,10.194,0,0,0,3.12-1.094,4.6,4.6,0,0,1-2.16,2.5,10.4,10.4,0,0,0,2.835-.7A9.935,9.935,0,0,1-429.186-787.817Z" transform="translate(459.72 804.308)" fill="#FFF"/>
</svg>
