<svg xmlns="http://www.w3.org/2000/svg" width="40" height="40" viewBox="0 0 40 40">
  <g id="Raggruppa_51521" data-name="Raggruppa 51521" transform="translate(-1460 -5029)">
    <circle id="Ellisse_2" data-name="Ellisse 2" cx="20" cy="20" r="20" transform="translate(1460 5029)" fill="#232323"/>
    <path id="Tracciato_34857" data-name="Tracciato 34857" d="M-389.2-796.043h0a3.125,3.125,0,0,0-2.122-2.278c-1.873-.539-9.378-.539-9.378-.539s-7.506,0-9.376.539a3.125,3.125,0,0,0-2.127,2.278,36.081,36.081,0,0,0-.5,6.2,36.061,36.061,0,0,0,.5,6.2,3.078,3.078,0,0,0,2.122,2.243c1.872.538,9.378.538,9.378.538s7.506,0,9.376-.538a3.075,3.075,0,0,0,2.122-2.243,35.973,35.973,0,0,0,.5-6.2A35.955,35.955,0,0,0-389.2-796.043Zm-13.953,10.01v-7.614l6.275,3.807Z" transform="translate(1880.702 5838.86)" fill="#fff"/>
  </g>
</svg>
